<svg xmlns="http://www.w3.org/2000/svg" viewBox="0 0 767.0883 191.237">
  <g id="invert-rgb">
    <g>
      <path id="fullLogo" d="M290.4364,38.2915H260.4755V152.294h20.56v-43.36h9.4c19.0772,0,29.1607-8.5346,29.1607-24.6811V62.9717C319.5971,46.8257,309.5136,38.2915,290.4364,38.2915Zm-9.4,18.32h8.76c6.563,0,9.24,2.6773,9.24,9.24V81.3726c0,6.563-2.6772,9.24-9.24,9.24h-8.76Z" style="fill: #fff"/>
      <polygon id="fullLogo-2" data-name="fullLogo" points="367.677 85.013 348.396 85.013 348.396 38.292 327.835 38.292 327.835 152.294 348.396 152.294 348.396 103.653 367.677 103.653 367.677 152.294 388.238 152.294 388.238 38.292 367.677 38.292 367.677 85.013" style="fill: #fff"/>
      <path id="fullLogo-3" data-name="fullLogo" d="M430.4359,37.0113h-1.28c-19.35,0-29.16,8.3037-29.16,24.6806v67.2017c0,16.1465,10.083,24.6807,29.16,24.6807h1.28c19.0772,0,29.1612-8.5342,29.1612-24.6807V61.6919C459.5971,45.5459,449.5131,37.0113,430.4359,37.0113Zm8.6006,27.56v61.4419c0,6.5635-2.6768,9.24-9.24,9.24s-9.24-2.6767-9.24-9.24V64.5718c0-6.563,2.6768-9.24,9.24-9.24S439.0365,58.0088,439.0365,64.5718Z" style="fill: #fff"/>
      <polygon id="fullLogo-4" data-name="fullLogo" points="491.915 103.653 517.516 103.653 517.516 85.333 491.915 85.333 491.915 56.612 522.476 56.612 522.476 38.292 471.355 38.292 471.355 152.294 522.956 152.294 522.956 133.974 491.915 133.974 491.915 103.653" style="fill: #fff"/>
      <polygon id="fullLogo-5" data-name="fullLogo" points="574.555 102.517 552.751 38.292 532.474 38.292 532.474 152.294 551.435 152.294 551.435 84.604 574.197 152.294 593.516 152.294 593.516 38.292 574.555 38.292 574.555 102.517" style="fill: #fff"/>
      <rect id="fullLogo-6" data-name="fullLogo" x="606.5541" y="38.2915" width="20.5596" height="114.0024" style="fill: #fff"/>
      <polygon id="fullLogo-7" data-name="fullLogo" points="764.65 38.292 743.605 38.292 733.28 73.31 722.204 38.292 700.839 38.292 721.364 94.165 700.034 149.749 678.702 94.16 698.572 38.292 677.527 38.292 667.202 73.31 656.126 38.292 634.761 38.292 655.286 94.165 632.979 152.294 654.043 152.294 666.462 113.523 679.638 152.294 699.057 152.294 701.01 152.294 720.121 152.294 732.54 113.523 745.716 152.294 767.088 152.294 744.78 94.16 764.65 38.292" style="fill: #fff"/>
      <g id="logoMark">
        <path id="logoMark_PathItem_" data-name="logoMark &lt;PathItem&gt;" d="M186.0407,95.687l39.3,22.75-29.02,50.14-39.3-22.75-.06,45.41-57.93-.07.05-45.42c8.28-13.51,58.77-57.23,80.8-22.73,2.41-15.41-9.68-23.98-13.92-29.14-3.5329-32.0166-37.9886-19.045-52.56-37.3a26.82,26.82,0,0,0,2.97,8.44,90.9457,90.9457,0,0,1-38.43-18c7.25,12.02,22.35,21.42,29.37,25.33-10.86-.5-27.7-6-58.67-29.88l11.27-19.81,39.3,22.76.05-45.41,57.93.07-.05,45.4,39.35-22.65,28.91,50.21Z" style="fill: #ef233c"/>
        <path id="logoMark_PathItem_2" data-name="logoMark &lt;PathItem&gt;" d="M79.334,130.4564c-23.7617-10.8826-56.8521,4.039-73.173-29.2453,5.4158,6.122,18.0559,7.7634,28.4819,7.9829C45.0282,115.8869,84.3652,116.8342,79.334,130.4564Z" style="fill: #ef233c"/>
        <path id="logoMark_PathItem_3" data-name="logoMark &lt;PathItem&gt;" d="M83.6237,123.0126c-.54-6.0877-27.9084-12.0762-42.187-16.2412C17.6643,98.61-.4964,77.026.01,56.5725c4.8,11.8336,20.5038,19.6686,31.5883,23.8772a96.1579,96.1579,0,0,0,27.3175,20.351C68.2851,105.71,86.2389,113.6308,83.6237,123.0126Z" style="fill: #ef233c"/>
        <path id="logoMark_PathItem_4" data-name="logoMark &lt;PathItem&gt;" d="M93.0142,134.9417c-19.4018,16.4337-32.96,32.2054-35.6441,50.05-.3757-33.0494,30.9656-44.8933,31.08-66.2819-1.0216-8.5333-17.6754-17.64-27.4587-22.203C27.56,78.8146.2381,42.3089,25.467,0,9.9524,70.5379,152.7792,80.0244,93.0142,134.9417Z" style="fill: #ef233c"/>
        <path id="logoMark_PathItem_5" data-name="logoMark &lt;PathItem&gt;" d="M132.4807,66.987c-.07-.01-.23-.03-.48-.08C132.1607,66.937,132.3207,66.957,132.4807,66.987Z" style="fill: #fff"/>
        <path id="logoMark_PathItem_6" data-name="logoMark &lt;PathItem&gt;" d="M156.5719,89.4746c-2.9569,3.1006-9.645-3.6378-6.5566-6.583C152.9694,79.7908,159.6589,86.5293,156.5719,89.4746Z" style="fill: #ef233c"/>
      </g>
    </g>
  </g>
</svg>
